<?xml version="1.0" standalone="no"?><!DOCTYPE svg PUBLIC "-//W3C//DTD SVG 1.1//EN" "http://www.w3.org/Graphics/SVG/1.1/DTD/svg11.dtd"><svg t="1545924706562" class="icon" style="" viewBox="0 0 1024 1024" version="1.1" xmlns="http://www.w3.org/2000/svg" p-id="1102" xmlns:xlink="http://www.w3.org/1999/xlink" width="80" height="80"><defs><style type="text/css"></style></defs><path d="M896 0C966.4 0 1024 57.6 1024 128v768c0 70.4-57.6 128-128 128h-768C57.6 1024 0 966.4 0 896V724.02944c42.56768 24.7808 148.38784 86.41536 174.03904 100.89472 15.3088 8.64256 29.96224 8.42752 44.71808-0.07168 18.08384-10.42432 405.504-233.35936 414.39232-238.49984 8.86784-5.12 9.3184-20.82816-0.6144-26.50112-9.9328-5.66272-28.79488-16.37376-35.81952-20.48-7.13728-4.16768-19.98848-6.49216-31.90784 0.37888-4.94592 2.84672-336.04608 193.2288-347.11552 199.51616a43.17184 43.17184 0 0 1-42.83392-0.01024C164.43392 733.22496 0.32768 637.85984 0.32768 637.85984L0 638.04416v-86.54848c42.56768 24.7808 148.38784 86.41536 174.03904 100.89472 15.3088 8.64256 29.96224 8.42752 44.71808-0.08192 18.08384-10.42432 405.504-233.35936 414.39232-238.4896 8.86784-5.12 9.3184-20.8384-0.6144-26.50112-9.9328-5.66272-28.79488-16.384-35.81952-20.49024-7.13728-4.16768-19.98848-6.48192-31.90784 0.37888-4.94592 2.85696-336.04608 193.23904-347.11552 199.5264a43.17184 43.17184 0 0 1-42.83392-0.01024C164.43392 560.68096 0.32768 465.32608 0.32768 465.32608L0 465.5104v-86.55872c42.56768 24.79104 148.38784 86.4256 174.03904 100.90496 15.3088 8.64256 29.96224 8.42752 44.71808-0.08192 18.08384-10.42432 405.504-233.35936 414.39232-238.49984 8.86784-5.12 9.3184-20.82816-0.6144-26.49088-9.9328-5.67296-28.79488-16.384-35.81952-20.49024-7.13728-4.16768-19.98848-6.48192-31.90784 0.37888a690049.024 690049.024 0 0 1-347.11552 199.51616 43.14112 43.14112 0 0 1-42.83392-0.01024C164.43392 388.1472 0.32768 292.79232 0.32768 292.79232L0 292.9664V128C0 57.6 57.6 0 128 0h768z" fill="#E44332" p-id="1103"></path></svg>